<svg width="15" height="11" viewBox="0 0 15 11" fill="none" xmlns="http://www.w3.org/2000/svg">
<path fill-rule="evenodd" clip-rule="evenodd" d="M7.42541 2.20055C9.58002 2.20065 11.6522 3.02338 13.2138 4.49871C13.3314 4.61261 13.5193 4.61117 13.6351 4.49549L14.7591 3.36815C14.8178 3.30948 14.8505 3.23 14.85 3.1473C14.8495 3.06461 14.8159 2.98551 14.7566 2.92752C10.658 -0.975841 4.19213 -0.975841 0.09361 2.92752C0.03424 2.98547 0.000554236 3.06454 6.778e-06 3.14723C-0.00054068 3.22993 0.0320953 3.30943 0.0906929 3.36815L1.21505 4.49549C1.33078 4.61135 1.51888 4.61278 1.6364 4.49871C3.19813 3.02328 5.27059 2.20055 7.42541 2.20055ZM7.4225 5.96612C8.59836 5.96604 9.73226 6.42265 10.6039 7.2472C10.7218 7.36423 10.9075 7.36169 11.0224 7.24149L12.1376 6.06433C12.1963 6.00258 12.2289 5.91882 12.228 5.83178C12.2272 5.74474 12.193 5.66168 12.1331 5.6012C9.47883 3.02182 5.36842 3.02182 2.71419 5.6012C2.65424 5.66168 2.62003 5.74478 2.61924 5.83185C2.61846 5.91892 2.65115 6.00267 2.71001 6.06433L3.82487 7.24149C3.93979 7.36169 4.1255 7.36423 4.24339 7.2472C5.11442 6.42319 6.24742 5.96663 7.4225 5.96612ZM9.60943 8.45868C9.6111 8.55268 9.57899 8.6433 9.52069 8.70916L7.63503 10.8994C7.57975 10.9638 7.50439 11 7.42575 11C7.34712 11 7.27176 10.9638 7.21648 10.8994L5.3305 8.70916C5.27224 8.64326 5.24019 8.5526 5.24191 8.4586C5.24364 8.3646 5.27899 8.27559 5.33962 8.21258C6.54388 7.04025 8.30762 7.04025 9.51188 8.21258C9.57247 8.27564 9.60776 8.36468 9.60943 8.45868Z" fill="white"/>
</svg>
